<?xml version="1.0" encoding="UTF-8" standalone="no"?>
<svg width="141px" height="40px" viewBox="0 0 141 40" version="1.1" xmlns="http://www.w3.org/2000/svg" xmlns:xlink="http://www.w3.org/1999/xlink">
    <!-- Generator: Sketch 3.6.1 (26313) - http://www.bohemiancoding.com/sketch -->
    <title>Logo</title>
    <desc>Created with Sketch.</desc>
    <defs></defs>
    <g id="App" stroke="none" stroke-width="1" fill="none" fill-rule="evenodd">
        <g id="0.0-Intro" transform="translate(-117.000000, -300.000000)" fill="#FFFFFF">
            <g id="Logo" transform="translate(117.000000, 300.000000)">
                <path d="M11.9044776,26.1558209 C8.13373134,26.1558209 8.49671642,22.2823881 8.49671642,22.2823881 L9.04059701,18.2925373 C9.04059701,18.2925373 10.201791,11.8567164 14.8955224,11.8567164 C16.0883582,11.8567164 17.2746269,13.5677612 17.2746269,16.8680597 C17.2746269,21.6549254 15.5104478,26.1558209 11.9044776,26.1558209 L11.9044776,26.1558209 Z M16.7856716,6.9438806 C13.0829851,6.9438806 9.72597015,11.3468657 9.72597015,11.3468657 C9.72597015,11.3468657 9.81970149,9.44656716 10.1486567,7.87701493 C10.1486567,7.87701493 9.12835821,7.35044776 7.88298507,7.35044776 C3.82746269,7.35044776 3.36059701,12.7558209 2.0561194,23.0979104 C1.00597015,31.4179104 -0.669850746,39.8668657 4.65492537,39.8668657 C5.5880597,39.8668657 6.32835821,39.641791 6.32835821,39.641791 C6.36776119,39.3767164 7.00059701,34.160597 7.67164179,28.7862687 C7.67164179,28.7862687 8.72776119,31.0232836 12.0316418,31.0232836 C18.7773134,31.0232836 23.0758209,25.518209 23.0758209,16.3092537 C23.0758209,9.00119403 20.4895522,6.9438806 16.7856716,6.9438806 L16.7856716,6.9438806 Z" id="Fill-11"></path>
                <path d="M80.4083582,22.5785075 C80.2244776,23.0453731 78.9420896,26.120597 76.7647761,26.120597 C75.3008955,26.120597 75.3176119,24.1832836 75.3176119,21.7785075 C75.3176119,19.7677612 76.0197015,15.8167164 76.8507463,11.8585075 C77.680597,11.8608955 77.9020896,11.8650746 78.6155224,11.8650746 C80.0059701,11.8650746 82.2758209,10.3026866 82.2758209,7.34626866 L77.8453731,7.34985075 C78.6322388,3.93014925 79.3373134,1.15462687 79.4991045,0.584477612 C79.4991045,0.584477612 78.4268657,0.180895522 77.1528358,0.180895522 C72.7450746,0.180895522 71.8614925,7.35343284 71.8614925,7.35343284 L67.8340299,7.3558209 C67.8340299,7.3558209 67.001791,11.7814925 70.7564179,11.7814925 C69.9092537,15.6238806 69.2591045,19.8268657 69.2155224,23.0710448 C69.1259701,29.8967164 71.9050746,31.0865672 74.6979104,31.0865672 C79.0937313,31.0865672 81.8071642,27.5134328 82.2435821,26.120597 C83.0179104,23.6495522 80.4083582,22.5785075 80.4083582,22.5785075" id="Fill-12"></path>
                <path d="M85.6268657,19.8889552 L89.2644776,19.8889552 C91.6274627,19.8889552 92.6465672,18.4370149 92.6465672,15.480597 L82.5862687,15.4907463 C82.5862687,15.4907463 82.0262687,19.8889552 85.6268657,19.8889552" id="Fill-13"></path>
                <path d="M32.7623881,26.120597 C31.0208955,26.120597 30.6202985,24.3068657 30.6202985,22.2704478 C30.6202985,18.1337313 31.9510448,11.8549254 36.04,11.8549254 C39.6358209,11.8549254 38.638806,16.0710448 38.638806,16.0710448 C38.638806,16.0710448 36.9629851,26.120597 32.7623881,26.120597 L32.7623881,26.120597 Z M63.3850746,6.90507463 C59.8740299,6.90507463 57.3940299,10.8 57.3940299,10.8 C57.3940299,10.8 57.5414925,8.84835821 57.6937313,7.85552239 C57.6937313,7.85552239 52.6065672,5.35223881 51.3032836,11.9922388 C51.0161194,13.4561194 49.8871642,21.5952239 49.8871642,21.5952239 C49.8871642,21.5952239 48.1958209,26.1743284 45.7325373,26.1743284 C44.2680597,26.1743284 44.1474627,24.1820896 44.2095522,21.7785075 C44.2746269,19.2638806 45.8728358,9.25671642 46.2758209,7.83462687 C46.2758209,7.83462687 45.2453731,7.36955224 43.9952239,7.36955224 C41.1844776,7.36955224 40.5904478,10.1259701 40.5904478,10.1259701 C40.5904478,10.1259701 39.5934328,6.90089552 36.1665672,6.90089552 C27.7898507,6.90089552 25.0602985,16.0650746 25.0602985,22.4716418 C25.0602985,29.9391045 28.758806,31.0865672 31.9725373,31.0865672 C36.04,31.0865672 38.2997015,26.5659701 38.3779104,26.5402985 C38.3779104,26.5402985 38.7450746,31.0865672 43.5892537,31.0865672 C47.4955224,31.0865672 49.7020896,28.001791 49.7020896,28.001791 C50.7570149,32.0937313 55.079403,30.278806 55.079403,30.278806 C55.1379104,29.8943284 56.2997015,20.4859701 56.2997015,20.4859701 C57.2220896,15.5140299 59.0608955,11.8650746 61.1862687,11.8650746 C62.48,11.8650746 62.2764179,13.5361194 62.0585075,13.9868657 C62.0585075,13.9868657 62.9838806,14.7080597 63.9677612,14.7080597 C66.4053731,14.7080597 66.9444776,11.7379104 66.9444776,10.4758209 C66.9444776,9.49970149 66.5456716,6.90507463 63.3850746,6.90507463 L63.3850746,6.90507463 Z" id="Fill-14"></path>
                <path d="M129.639403,26.1558209 C125.869254,26.1558209 126.232239,22.2823881 126.232239,22.2823881 L126.776119,18.2925373 C126.776119,18.2925373 127.93791,11.8567164 132.631045,11.8567164 C133.824478,11.8567164 135.010746,13.5677612 135.010746,16.8680597 C135.010746,21.6549254 133.24597,26.1558209 129.639403,26.1558209 L129.639403,26.1558209 Z M134.521791,6.9438806 C130.818507,6.9438806 127.46209,11.3468657 127.46209,11.3468657 C127.46209,11.3468657 127.555821,9.44656716 127.884179,7.87701493 C127.884179,7.87701493 126.863881,7.35044776 125.618507,7.35044776 C121.891343,7.35044776 121.195224,11.920597 120.094328,20.6883582 C120.094328,20.6883582 118.338507,26.1528358 115.585075,26.1528358 C114.120597,26.1528358 114,24.161194 114.06209,21.7570149 C114.127164,19.2423881 115.712239,9.3080597 116.115224,7.88597015 C116.115224,7.88597015 112.473433,6.00477612 110.533134,9.13791045 C109.670448,10.5307463 108.998209,12.8555224 108.557015,15.6519403 C108.557015,15.6519403 106.343881,26.1528358 102.50209,26.1528358 C101.037015,26.1528358 100.917015,24.161194 100.979104,21.7570149 C101.044179,19.2423881 102.628657,9.3080597 103.032836,7.88597015 C103.032836,7.88597015 99.3468657,6.05253731 97.4501493,9.13791045 C95.9050746,11.6513433 94.96,17.1761194 94.8776119,23.0501493 C94.7814925,29.8752239 97.5659701,31.0656716 100.358209,31.0656716 C105.525373,31.0656716 108.169552,26.1904478 108.169552,26.1904478 C108.169552,26.1904478 108.304478,31.0656716 113.441791,31.0656716 C117.065672,31.0656716 119.093134,28.4835821 119.093134,28.4835821 C118.343881,34.7086567 118.229851,39.8668657 122.390448,39.8668657 C123.323582,39.8668657 124.063284,39.641791 124.063284,39.641791 C124.103881,39.3767164 124.736119,34.160597 125.407164,28.7862687 C125.407164,28.7862687 126.463284,31.0232836 129.767761,31.0232836 C136.512836,31.0232836 140.811343,25.518209 140.811343,16.3092537 C140.811343,9.00119403 138.225075,6.9438806 134.521791,6.9438806 L134.521791,6.9438806 Z" id="Fill-15"></path>
            </g>
        </g>
    </g>
</svg>