<svg width="16" height="16" viewBox="0 0 16 16" xmlns="http://www.w3.org/2000/svg"><title>icon_message</title><g fill="#000" fill-rule="evenodd"><path d="M5.736 12.073l.55-.254.599.094c.364.058.737.087 1.115.087 3.369 0 6-2.302 6-5s-2.631-5-6-5-6 2.302-6 5c0 1.18.496 2.306 1.408 3.21l.592.587V12.9l1.736-.827zM8 0c4.418 0 8 3.134 8 7s-3.582 7-8 7c-.487 0-.963-.038-1.426-.11L2 16v-4.37C.755 10.396 0 8.775 0 7c0-3.866 3.582-7 8-7z"/><path d="M11 8a1 1 0 1 0 0-2 1 1 0 0 0 0 2zM5 8a1 1 0 1 0 0-2 1 1 0 0 0 0 2zm3 0a1 1 0 1 0 0-2 1 1 0 0 0 0 2z"/></g></svg>