<svg width="16" height="16" viewBox="0 0 16 16" xmlns="http://www.w3.org/2000/svg"><title>icon_mail</title><path d="M7.965 10.008c-1.104 0-2-.897-2-2s.896-2 2-2c1.103 0 2 .897 2 2s-.897 2-2 2m0-10a8 8 0 0 0-8 8c0 4.31 3.41 7.813 7.678 7.983-.026.003.457-.009.525-.024a7.92 7.92 0 0 0 3.292-.999c.48-.28.65-.89.37-1.37a.988.988 0 0 0-1.36-.37 6.048 6.048 0 0 1-2.747.768c-3.199-.129-5.758-2.756-5.758-5.988a6 6 0 0 1 12 0v1a1.001 1.001 0 0 1-2 0v-1a4 4 0 1 0-4 4c1.051 0 2-.414 2.715-1.078a2.976 2.976 0 0 0 2.285 1.078c1.656 0 3-1.375 3-3.156v-.844a8 8 0 0 0-8-8" fill="#000" fill-rule="evenodd"/></svg>