<svg width="141" height="40" viewBox="0 0 141 40" xmlns="http://www.w3.org/2000/svg"><title>Logo</title><g fill="#FFF" fill-rule="evenodd"><path d="M11.904 26.156c-3.77 0-3.407-3.874-3.407-3.874l.544-3.99s1.16-6.435 5.855-6.435c1.192 0 2.379 1.71 2.379 5.011 0 4.787-1.765 9.288-5.37 9.288zm4.882-19.212c-3.703 0-7.06 4.403-7.06 4.403s.094-1.9.423-3.47c0 0-1.02-.527-2.266-.527-4.056 0-4.522 5.406-5.827 15.748-1.05 8.32-2.726 16.769 2.599 16.769.933 0 1.673-.225 1.673-.225.04-.265.673-5.481 1.344-10.856 0 0 1.056 2.237 4.36 2.237 6.745 0 11.044-5.505 11.044-14.714 0-7.308-2.586-9.365-6.29-9.365zm63.622 15.635c-.184.466-1.466 3.542-3.643 3.542-1.464 0-1.447-1.938-1.447-4.342 0-2.011.702-5.962 1.533-9.92.83.002 1.051.006 1.765.006 1.39 0 3.66-1.562 3.66-4.519l-4.43.004c.786-3.42 1.491-6.195 1.653-6.766 0 0-1.072-.403-2.346-.403-4.408 0-5.292 7.172-5.292 7.172l-4.027.003s-.832 4.425 2.922 4.425c-.847 3.843-1.497 8.046-1.54 11.29-.09 6.826 2.69 8.016 5.482 8.016 4.396 0 7.11-3.574 7.546-4.966.774-2.471-1.836-3.542-1.836-3.542"/><path d="M85.627 19.889h3.637c2.363 0 3.383-1.452 3.383-4.408l-10.06.01s-.56 4.398 3.04 4.398M32.762 26.12c-1.741 0-2.142-1.813-2.142-3.85 0-4.136 1.331-10.415 5.42-10.415 3.596 0 2.599 4.216 2.599 4.216s-1.676 10.05-5.877 10.05zM63.385 6.906c-3.511 0-5.991 3.895-5.991 3.895s.147-1.952.3-2.944c0 0-5.087-2.504-6.39 4.136-.288 1.464-1.417 9.603-1.417 9.603s-1.691 4.58-4.154 4.58c-1.465 0-1.586-1.993-1.523-4.396.065-2.515 1.663-12.522 2.066-13.944 0 0-1.03-.465-2.28-.465-2.812 0-3.406 2.756-3.406 2.756s-.997-3.225-4.423-3.225c-8.377 0-11.107 9.164-11.107 15.57 0 7.468 3.699 8.616 6.913 8.616 4.067 0 6.327-4.521 6.405-4.547 0 0 .367 4.547 5.211 4.547 3.907 0 6.113-3.085 6.113-3.085 1.055 4.092 5.377 2.277 5.377 2.277.059-.385 1.22-9.793 1.22-9.793.923-4.972 2.762-8.62 4.887-8.62 1.294 0 1.09 1.67.873 2.12 0 0 .925.722 1.909.722 2.437 0 2.976-2.97 2.976-4.232 0-.976-.398-3.57-3.559-3.57zm66.255 19.25c-3.77 0-3.408-3.874-3.408-3.874l.544-3.99s1.162-6.435 5.855-6.435c1.193 0 2.38 1.71 2.38 5.011 0 4.787-1.765 9.288-5.372 9.288zm4.882-19.212c-3.703 0-7.06 4.403-7.06 4.403s.094-1.9.422-3.47c0 0-1.02-.527-2.265-.527-3.728 0-4.424 4.57-5.525 13.338 0 0-1.755 5.465-4.509 5.465-1.464 0-1.585-1.992-1.523-4.396.065-2.515 1.65-12.449 2.053-13.871 0 0-3.642-1.881-5.582 1.252-.863 1.393-1.535 3.718-1.976 6.514 0 0-2.213 10.5-6.055 10.5-1.465 0-1.585-1.99-1.523-4.395.065-2.515 1.65-12.449 2.054-13.871 0 0-3.686-1.833-5.583 1.252-1.545 2.513-2.49 8.038-2.572 13.912-.097 6.825 2.688 8.016 5.48 8.016 5.167 0 7.812-4.876 7.812-4.876s.134 4.876 5.272 4.876c3.624 0 5.651-2.582 5.651-2.582-.75 6.225-.863 11.383 3.297 11.383.934 0 1.673-.225 1.673-.225.04-.265.673-5.481 1.344-10.856 0 0 1.056 2.237 4.36 2.237 6.746 0 11.044-5.505 11.044-14.714 0-7.308-2.586-9.365-6.29-9.365z"/></g></svg>